<?xml version="1.0" encoding="UTF-8"?><svg id="Layer_1" xmlns="http://www.w3.org/2000/svg" viewBox="0 0 359.94 80.19"><defs><style>.cls-1{fill:#988fff;}.cls-2{fill:#231f20;}</style></defs><circle id="_Blue_Circle_" class="cls-1" cx="41.47" cy="41.12" r="27.71"/><path id="_b_" class="cls-2" d="M104.59,36.13c1.43,.9,2.58,2.19,3.31,3.71,.82,1.66,1.23,3.5,1.2,5.35,.02,1.86-.39,3.69-1.2,5.36-.74,1.54-1.88,2.85-3.31,3.78-1.39,.91-3.03,1.38-4.69,1.36-1.46,0-2.89-.38-4.14-1.12-1.25-.74-2.31-1.77-3.08-3v2.59c0,.32-.11,.63-.33,.87-.22,.23-.53,.36-.85,.35-.32,0-.62-.12-.84-.35-.22-.24-.34-.55-.33-.87V27.5c0-.32,.11-.62,.33-.85,.22-.22,.53-.34,.84-.33,.62-.03,1.15,.45,1.18,1.08,0,.03,0,.07,0,.1v11.57c.71-1.28,1.75-2.35,3-3.1,1.26-.78,2.72-1.19,4.2-1.18,1.67-.02,3.3,.45,4.71,1.34Zm-1.24,16.28c1.11-.75,1.99-1.79,2.55-3,.63-1.32,.95-2.76,.93-4.22,.02-1.46-.29-2.91-.93-4.22-.57-1.19-1.45-2.2-2.55-2.92-1.09-.71-2.37-1.08-3.67-1.06-2.7-.04-5.17,1.53-6.27,4-.62,1.33-.93,2.78-.91,4.24-.02,1.47,.3,2.93,.93,4.26,.56,1.22,1.44,2.26,2.55,3,1.1,.72,2.39,1.1,3.7,1.08,1.31,0,2.58-.41,3.65-1.16h.02Z"/><path id="_l_" class="cls-2" d="M116.24,54.98c-.22,.22-.53,.34-.84,.33-.32,.01-.62-.11-.85-.33-.22-.22-.34-.53-.33-.84V27.46c0-.32,.11-.62,.33-.85,.23-.22,.53-.34,.85-.33,.31-.01,.62,.11,.84,.33,.22,.23,.34,.53,.33,.85v26.68c.01,.31-.11,.62-.33,.84Z"/><path id="_e_1_" class="cls-2" d="M139.25,44.94c-.22,.21-.51,.33-.82,.33h-14.84c-.01,1.47,.33,2.91,1,4.22,.62,1.22,1.57,2.24,2.74,2.94,1.28,.74,2.74,1.12,4.22,1.08,1.17,.02,2.34-.25,3.38-.79,.94-.48,1.76-1.16,2.39-2,.23-.21,.51-.33,.82-.35,.54,.03,.97,.46,1,1-.01,.32-.15,.61-.39,.82-.87,1.04-1.95,1.89-3.16,2.5-1.23,.65-2.61,1-4,1-1.86,.03-3.7-.41-5.34-1.3-1.54-.83-2.81-2.08-3.66-3.61-.89-1.66-1.33-3.51-1.29-5.39-.03-1.95,.41-3.89,1.29-5.63,.77-1.52,1.95-2.8,3.4-3.69,1.36-.84,2.92-1.28,4.51-1.28,1.54,0,3.05,.37,4.41,1.1,1.39,.75,2.55,1.86,3.36,3.22,.89,1.51,1.35,3.24,1.33,5,0,.31-.12,.62-.35,.83Zm-13-6.3c-1.35,1.15-2.23,2.75-2.49,4.51h13.38v-.31c-.1-1.12-.51-2.18-1.18-3.08-.63-.87-1.48-1.55-2.45-2-.94-.45-1.96-.68-3-.69-1.56,.02-3.06,.6-4.23,1.62l-.03-.05Z"/><path id="_n_" class="cls-2" d="M159.32,36.93c1.2,1.64,1.8,3.64,1.7,5.67v11.54c.01,.32-.12,.63-.35,.84-.22,.21-.51,.33-.82,.33-.32,.01-.62-.11-.85-.33-.22-.22-.34-.53-.33-.84v-11.45c.07-1.49-.39-2.95-1.28-4.14-.99-1.12-2.45-1.71-3.94-1.59-2.23,.01-4.33,1.09-5.65,2.89-.61,.82-.94,1.82-.94,2.84v11.45c.01,.31-.11,.62-.33,.84-.23,.22-.53,.34-.85,.33-.62,.02-1.15-.46-1.17-1.09,0-.03,0-.05,0-.08v-17.58c-.01-.31,.11-.62,.33-.84,.22-.23,.52-.35,.84-.34,.63-.02,1.16,.48,1.18,1.12,0,.02,0,.04,0,.06v2.13c.75-1.17,1.78-2.14,3-2.81,1.23-.72,2.63-1.11,4.06-1.12,2.47,.03,4.26,.75,5.4,2.17Z"/><path id="_d1_" class="cls-2" d="M184.35,26.61c.22,.23,.34,.53,.33,.85v26.68c.01,.31-.11,.62-.33,.84-.23,.22-.53,.34-.85,.33-.62,.02-1.15-.46-1.17-1.09,0-.03,0-.05,0-.08v-2.75c-.7,1.25-1.71,2.3-2.93,3.06-1.28,.83-2.77,1.26-4.29,1.24-1.66,.02-3.29-.46-4.69-1.36-1.43-.93-2.57-2.22-3.32-3.75-1.61-3.38-1.61-7.32,0-10.7,.75-1.53,1.89-2.82,3.32-3.75,1.38-.9,3-1.37,4.65-1.36,1.5,0,2.98,.39,4.27,1.16,1.25,.71,2.29,1.75,3,3v-11.47c0-.32,.11-.62,.33-.85,.22-.22,.53-.34,.84-.33,.31,0,.61,.11,.84,.33Zm-5.34,25.84c1.12-.74,2-1.78,2.55-3,.63-1.33,.94-2.79,.92-4.26,.02-1.45-.29-2.89-.92-4.2-.56-1.21-1.44-2.25-2.55-3-2.24-1.44-5.1-1.44-7.34,0-1.1,.75-1.98,1.79-2.55,3-1.23,2.68-1.23,5.76,0,8.44,.57,1.21,1.45,2.25,2.55,3,1.09,.72,2.37,1.1,3.67,1.08,1.3,.01,2.58-.35,3.67-1.06Z"/><path id="_e_2_" class="cls-2" d="M207.47,44.94c-.22,.21-.51,.33-.82,.33h-14.83c-.01,1.47,.33,2.91,1,4.22,.62,1.22,1.58,2.24,2.75,2.94,1.28,.74,2.74,1.12,4.22,1.08,1.17,.02,2.33-.25,3.37-.79,.94-.48,1.76-1.16,2.39-2,.23-.21,.52-.33,.83-.35,.27,0,.52,.12,.7,.31,.2,.18,.31,.44,.32,.71-.01,.32-.16,.62-.4,.82-.88,1.04-1.97,1.88-3.19,2.48-1.23,.65-2.61,1-4,1-1.86,.03-3.7-.41-5.33-1.3-1.52-.84-2.78-2.1-3.61-3.63-.88-1.65-1.32-3.5-1.28-5.37-.05-1.95,.39-3.89,1.27-5.63,.77-1.52,1.94-2.8,3.39-3.69,1.36-.84,2.92-1.28,4.52-1.28,1.54,0,3.05,.37,4.41,1.1,1.39,.75,2.54,1.86,3.35,3.22,.89,1.51,1.36,3.24,1.34,5,0,.32-.15,.63-.4,.83Zm-13-6.3c-1.36,1.15-2.24,2.75-2.49,4.51h13.41v-.31c-.1-1.11-.51-2.18-1.17-3.08-.63-.86-1.48-1.55-2.45-2-.94-.45-1.96-.68-3-.69-1.57,.01-3.08,.59-4.26,1.62l-.04-.05Z"/><path id="_d_1_" class="cls-2" d="M229.82,26.61c.22,.23,.34,.53,.33,.85v26.68c.01,.31-.11,.62-.33,.84-.23,.22-.53,.34-.85,.33-.62,.02-1.15-.46-1.17-1.09,0-.03,0-.05,0-.08v-2.75c-.7,1.25-1.71,2.3-2.93,3.06-1.27,.83-2.76,1.26-4.28,1.24-1.66,.02-3.29-.46-4.69-1.36-1.42-.93-2.56-2.21-3.31-3.73-1.61-3.38-1.61-7.32,0-10.7,.75-1.53,1.9-2.82,3.32-3.75,1.39-.9,3.02-1.38,4.68-1.36,1.5,0,2.98,.39,4.27,1.16,1.25,.71,2.29,1.75,3,3v-11.49c0-.32,.11-.62,.33-.85,.22-.22,.53-.34,.84-.33,.3,0,.58,.12,.79,.33Zm-5.34,25.84c1.12-.74,2-1.78,2.55-3,.63-1.33,.94-2.79,.92-4.26,.02-1.45-.29-2.89-.92-4.2-.56-1.21-1.44-2.25-2.55-3-2.23-1.44-5.1-1.44-7.33,0-1.11,.75-1.99,1.79-2.55,3-1.25,2.68-1.25,5.76,0,8.44,.56,1.21,1.44,2.25,2.55,3,1.08,.72,2.36,1.1,3.66,1.08,1.3,.01,2.58-.35,3.67-1.06Z"/><path id="_s_1_" class="cls-2" d="M242.04,50.52c.08-1.14,1.01-2.04,2.16-2.07,.6,.02,1.17,.29,1.57,.74,.7,.75,1.53,1.36,2.45,1.8,.97,.42,2.02,.62,3.08,.59,2.04-.08,3.06-.85,3.06-2.31,.02-.72-.36-1.39-1-1.73-1.03-.52-2.12-.91-3.24-1.17-1.26-.33-2.5-.75-3.7-1.26-.97-.43-1.82-1.08-2.48-1.9-.72-1-1.08-2.21-1-3.44-.02-1.18,.36-2.33,1.08-3.27,.74-.95,1.72-1.69,2.83-2.16,1.17-.51,2.43-.77,3.7-.76,1.37,0,2.72,.25,4,.74,1.23,.42,2.31,1.19,3.13,2.2,.33,.39,.51,.89,.51,1.41,0,.59-.27,1.14-.74,1.49-.36,.28-.8,.43-1.26,.43-.53,.02-1.04-.18-1.41-.55-.49-.59-1.12-1.06-1.82-1.37-.8-.35-1.66-.53-2.53-.51-2,0-3,.72-3,2.16-.02,.52,.18,1.03,.55,1.39,.4,.38,.87,.66,1.39,.83,.56,.19,1.35,.43,2.37,.72,1.2,.32,2.38,.73,3.53,1.22,.93,.44,1.72,1.11,2.32,1.95,.7,.99,1.06,2.19,1,3.41,.02,1.22-.38,2.41-1.14,3.36-.76,.94-1.74,1.68-2.86,2.14-1.16,.49-2.41,.75-3.67,.75-1.65,.01-3.29-.28-4.83-.86-1.48-.55-2.77-1.52-3.7-2.8-.24-.34-.36-.75-.35-1.17Z"/><path id="_e_3_" class="cls-2" d="M280.59,45.5c-.46,.39-1.04,.6-1.64,.59h-12.94c.25,1.42,1.02,2.71,2.16,3.6,1.08,.86,2.42,1.32,3.8,1.31,.85,.03,1.69-.07,2.51-.29,.5-.15,.99-.37,1.44-.63l.72-.45c.41-.22,.87-.34,1.34-.35,1.1,0,2,.9,2,2-.04,.78-.45,1.49-1.1,1.92-.88,.67-1.88,1.17-2.94,1.49-1.2,.41-2.46,.63-3.73,.63-2,.05-3.98-.43-5.75-1.37-1.59-.88-2.91-2.19-3.78-3.79-.91-1.66-1.37-3.53-1.34-5.43-.05-2.06,.44-4.11,1.41-5.93,.87-1.61,2.16-2.96,3.73-3.9,1.49-.89,3.2-1.35,4.94-1.35,1.73,0,3.43,.49,4.89,1.41,1.52,.94,2.79,2.24,3.67,3.8,.9,1.58,1.38,3.36,1.37,5.18,0,.61-.28,1.18-.76,1.56Zm-14.55-3.33h10.28v-.28c-.11-1.13-.7-2.15-1.61-2.82-.93-.77-2.09-1.19-3.3-1.18-3.02,0-4.81,1.43-5.36,4.28h0Z"/><path id="_n_2_" class="cls-2" d="M302.07,35.95c1.12,2,1.65,4.28,1.52,6.57v10c.02,.64-.22,1.25-.66,1.71-.94,.92-2.44,.92-3.38,0-.44-.46-.68-1.07-.66-1.71v-10c.07-1.2-.25-2.39-.91-3.39-.76-.9-1.92-1.36-3.09-1.24-1.32-.07-2.62,.4-3.58,1.32-.86,.88-1.33,2.08-1.29,3.31v10c.02,.64-.22,1.25-.67,1.71-.93,.92-2.44,.92-3.37,0-.44-.46-.68-1.07-.67-1.71v-16.16c-.01-.64,.23-1.25,.67-1.71,.94-.91,2.43-.91,3.37,0,.45,.46,.69,1.07,.67,1.71v.67c.76-.98,1.7-1.81,2.77-2.43,1.13-.67,2.42-1.02,3.74-1,2.67-.01,4.52,.77,5.54,2.35Z"/><path id="_s_2_" class="cls-2" d="M307.17,50.52c0-.71,.38-1.36,1-1.72,.33-.23,.73-.35,1.13-.35,.6,.02,1.17,.29,1.57,.74,.7,.75,1.53,1.36,2.45,1.8,.97,.42,2.02,.62,3.08,.59,2.04-.08,3.06-.85,3.06-2.31,.03-.72-.36-1.39-1-1.73-1.03-.52-2.11-.91-3.23-1.17-1.26-.33-2.5-.75-3.71-1.26-.96-.43-1.81-1.08-2.47-1.9-.72-1-1.08-2.21-1-3.44-.02-1.18,.36-2.33,1.08-3.27,.74-.95,1.71-1.69,2.82-2.16,1.17-.51,2.43-.77,3.71-.76,1.37,0,2.72,.25,4,.74,1.23,.43,2.32,1.19,3.14,2.2,.33,.39,.51,.89,.51,1.41,0,.59-.27,1.14-.75,1.49-.35,.29-.8,.44-1.25,.43-.53,.02-1.04-.18-1.41-.55-.5-.59-1.12-1.06-1.83-1.37-.8-.35-1.66-.53-2.53-.51-2,0-3,.72-3,2.16-.02,.52,.18,1.03,.55,1.39,.4,.37,.87,.65,1.39,.83,.56,.19,1.36,.43,2.38,.72,1.2,.32,2.38,.73,3.53,1.22,.94,.44,1.75,1.11,2.35,1.95,.7,1,1.05,2.19,1,3.41,.01,1.21-.4,2.39-1.15,3.33-.77,.96-1.78,1.71-2.92,2.17-1.16,.49-2.41,.75-3.67,.75-1.65,.01-3.28-.28-4.82-.86-1.47-.56-2.74-1.53-3.66-2.8-.24-.34-.37-.75-.35-1.17Z"/><path id="_e_4_" class="cls-2" d="M345.73,45.5c-.46,.39-1.05,.6-1.65,.59h-12.94c.25,1.42,1.02,2.7,2.15,3.6,1.08,.86,2.43,1.33,3.81,1.31,.85,.03,1.69-.07,2.51-.29,.5-.15,.98-.37,1.43-.63l.73-.45c.41-.22,.87-.34,1.33-.35,.53-.01,1.04,.2,1.41,.59,.38,.35,.59,.85,.59,1.37-.03,.78-.44,1.5-1.1,1.92-.88,.68-1.88,1.2-2.94,1.53-1.2,.41-2.45,.63-3.72,.63-2,.06-3.98-.41-5.75-1.34-1.6-.88-2.91-2.19-3.79-3.79-.9-1.67-1.36-3.54-1.33-5.43-.05-2.06,.44-4.11,1.41-5.93,.86-1.62,2.15-2.97,3.73-3.9,1.51-.89,3.23-1.36,4.98-1.35,1.73,0,3.42,.49,4.88,1.41,1.53,.93,2.79,2.24,3.67,3.8,.91,1.57,1.38,3.36,1.37,5.18-.02,.6-.3,1.16-.78,1.53Zm-14.55-3.33h10.27v-.28c-.11-1.12-.69-2.15-1.6-2.82-.91-.76-2.07-1.18-3.26-1.18-3.07,0-4.87,1.43-5.41,4.28h0Z"/><path id="_Power_Button_" class="cls-2" d="M39.74,18.88l-.15,14.38c-5.06,.95-8.4,5.82-7.45,10.89,.82,4.37,4.6,7.55,9.04,7.61h.13c5.08-.03,9.2-4.12,9.28-9.2h0c.05-4.68-3.37-8.68-8-9.35l.2-14.29c0-.84-.69-1.53-1.53-1.53s-1.53,.69-1.53,1.53v-.04Zm2.77,22.27l.09-5.28c3.16,.63,5.42,3.43,5.38,6.65,0,1.77-.73,3.47-2,4.7-2.64,2.58-6.88,2.54-9.46-.1s-2.54-6.88,.1-9.46c.82-.8,1.83-1.38,2.94-1.68l-.07,5.12c-.01,.84,.66,1.54,1.51,1.56s1.54-.66,1.56-1.51h-.04Z"/><path id="_right_arc_" class="cls-2" d="M48.5,25.11c5.02,2.12,8.85,6.36,10.43,11.58,.17,.55,.69,.93,1.27,.93,.73,0,1.32-.61,1.31-1.35,0-.12-.02-.24-.05-.35-1.82-5.96-6.19-10.81-11.93-13.23-.7-.21-1.43,.18-1.65,.88-.18,.6,.09,1.25,.65,1.55h-.03Z"/><path id="_bottom_right_bar_" class="cls-2" d="M57.28,58.16c-.72-.43-1.66-.19-2.09,.53l-9.6,16.75c-.42,.72-.18,1.66,.54,2.08h.02c.73,.43,1.66,.18,2.09-.55l9.65-16.72c.41-.74,.15-1.67-.59-2.08h-.02Z"/><path id="_Dot_1_" class="cls-2" d="M58.78,52.26c-.91,.19-1.5,1.08-1.32,2,.19,.91,1.08,1.5,2,1.32,.9-.19,1.49-1.06,1.32-1.97-.17-.92-1.06-1.52-1.98-1.34h-.02Z"/><path id="_Dot_2_" class="cls-2" d="M62.42,47.24c-.31-.88-1.27-1.35-2.15-1.04-.88,.31-1.35,1.27-1.04,2.15,.01,.04,.03,.07,.04,.11,.37,.86,1.36,1.26,2.22,.89,.82-.35,1.22-1.27,.93-2.11Z"/><path id="_Musical_note_Left_" class="cls-2" d="M45.86,62.38c.71-.16,1.16-.86,1.01-1.57-.15-.66-.77-1.11-1.45-1.03-.55,.09-4.3,.12-5,.09-7.31-.31-13.74-4.92-16.39-11.73-.46-1.19-.8-2.43-1-3.7v-.51c0-.08,0-.15,0-.23v-.37c-.08-5.89,2.45-11.51,6.9-15.37,1.45-1.07,3.02-1.99,4.66-2.74,.68-.28,1.01-1.05,.73-1.73s-1.05-1.01-1.73-.73c-1.89,.83-3.68,1.86-5.34,3.08,1.55-1.93,3.2-3.77,4.94-5.53,4.37-4.54,8.49-8.84,8.85-15.4,.04-.73-.52-1.35-1.24-1.4-.73-.04-1.35,.52-1.4,1.25h0c-.31,5.59-3.92,9.36-8.11,13.73-5.05,5.31-10.7,11.26-11.04,21.67-.05,.13-.09,.27-.09,.41-.07,1.4,.01,2.81,.24,4.2,0,.21,0,.43,.06,.64,.02,.15,.07,.29,.14,.42,.25,1.11,.58,2.21,1,3.27,2.94,7.53,9.93,12.71,17.99,13.34-.06,.17-.1,.36-.1,.54v4.58c0,.84,.69,1.53,1.53,1.53s1.53-.69,1.53-1.53v-4.58c0-.16-.03-.32-.08-.47,1.13,.01,2.26-.03,3.39-.13Z"/></svg>