<svg xmlns="http://www.w3.org/2000/svg" version="1.2" viewBox="0 0 1526 322" width="1526" height="322">
  <title>FreightFacts Logo_BW1-svg</title>
  <style>
		.s0 { fill: #007dff } 
		.s1 { fill: #000000 } 
	</style>
  <path id="Layer" class="s0" d="m94 227.6c-17.8-29.9-41.6-72.7-41.6-98.8 0-24.2 9-46.3 25.4-62.4 17.1-16.8 40.5-25.7 67.5-25.7h48.4c-19.9-24.4-50.2-40-84.2-40-60 0-108.6 48.7-108.6 108.7 0 52.5 83.4 179.4 104 210 2.2 3.2 7 3.2 9.2 0 4.3-6.4 11.3-17 19.8-30.3l-0.3 0.2c-0.8-1.1-20-28.8-39.6-61.7z" fill="#000000"/>
  <path id="Layer" class="s0" d="m89.4 128.8c0 2.9 1.1 11.7 10.9 32.7 9.9-20.2 30.6-34.1 54.6-34.1h60.8c1.6-6.7 2.4-12.7 2.4-18 0-11-1.6-21.7-4.7-31.7h-68c-33.5 0-55.9 20.6-55.9 51.1z" fill="#000000"/>
  <path id="Layer" class="s0" d="m118.2 188.2c0 1.6 0.4 5.5 3.6 13.8q1.9 3.2 3.9 6.5c10.9 18.4 22 35.4 29.4 46.5 19.7-32.8 40.9-71.4 53-103.5h-53.2c-20.2 0-36.7 16.5-36.7 36.7z" fill="#000000"/>
  <path id="Layer" class="s1" d="m286.3 252.9h18.5c4.5 0 8.2-3.7 8.2-8.2v-64.8h69.3c4.5 0 8.2-3.7 8.2-8.2v-17h-77.5v-49.2h75c4.5 0 8.2-3.7 8.2-8.2v-17h-109.9z" fill="#000000"/>
  <path id="Layer" class="s1" d="m469.2 134.9l-1.3-0.5c-6.1-2-13.9-2.1-21.2 0.1-3.6 1.1-7 2.5-10.1 4.4-3.1 1.8-5.9 4-8.4 6.6q-1.6 1.7-2.9 3.5v-13.3h-25.3v116.9h17.1c4.5 0 8.2-3.7 8.2-8.2v-50.5c0-11.8 2.6-20.6 7.8-26.1 8.4-8.9 20.5-8.8 28.1-7.7 3.7 0.6 7.1-2.2 7.2-5.9l0.8-19.4z" fill="#000000"/>
  <path id="Layer" fill-rule="evenodd" class="s1" d="m571.1 154c4.6 5.8 7.9 12.5 10 19.8 2 7.2 3 14.6 3 22.1v3.2c0 3.5-2.8 6.3-6.3 6.3h-84.3c0.3 3.8 1.3 7.4 3 10.7 2 3.8 4.7 7.1 8 9.8 3.3 2.7 7.2 4.8 11.6 6.3 4.3 1.5 8.9 2.3 13.6 2.3 6.3 0 11.8-1.5 16.4-4.4 3.5-2.1 7.6-6.1 10.5-9.1 2.3-2.3 5.9-2.6 8.4-0.7l14.6 11.2-1.1 1.5c-12.3 15.9-29.6 23.9-51.6 23.9-9.1 0-17.5-1.6-24.9-4.7-7.5-3.1-13.9-7.5-19.1-13-5.1-5.4-9.1-12-11.9-19.4-2.8-7.4-4.2-15.6-4.2-24.2 0-8.6 1.5-16.8 4.6-24.2 3-7.4 7.2-13.9 12.5-19.4 5.3-5.5 11.8-9.9 19.1-13 7.4-3.1 15.5-4.7 24.1-4.7 10.3 0 19.1 1.9 26.3 5.5 7.1 3.6 13 8.4 17.7 14.2zm-44.5 1.3c-4.9 0-9.5 0.9-13.6 2.8-4.2 1.9-7.7 4.4-10.5 7.3-2.9 3-5.1 6.4-6.7 10.1-1.3 3-2 6-2.3 8.9h63.8q-0.4-5.7-2.1-10.6c-1.2-3.7-3.1-6.9-5.6-9.7-2.5-2.7-5.7-4.9-9.5-6.4-3.8-1.6-8.3-2.4-13.5-2.4z" fill="#000000"/>
  <path id="Layer" class="s1" d="m600.4 252.9h17.1c4.5 0 8.2-3.7 8.2-8.2v-108.6h-25.3v116.8z" fill="#000000"/>
  <path id="Layer" class="s1" d="m613 79.8c-4.7 0-8.9 1.7-12.4 5.2-3.4 3.4-5.2 7.6-5.2 12.4 0 4.8 1.8 9 5.2 12.4 3.5 3.5 7.7 5.2 12.4 5.2 4.8 0 9-1.7 12.5-5.2 3.4-3.4 5.2-7.6 5.2-12.4 0-4.8-1.8-9-5.2-12.4-3.5-3.5-7.7-5.2-12.5-5.2z" fill="#000000"/>
  <path id="Layer" fill-rule="evenodd" class="s1" d="m739.8 148.9c1.8-11.3 21.7-18.7 22.6-19l2.6-1v121.1c0 8.8-1.6 17-4.6 24.2-3 7.3-7.4 13.7-13 19-5.5 5.4-12.3 9.6-20.2 12.5-7.8 2.9-16.5 4.4-25.9 4.4-11 0-21.2-1.6-30.3-4.6-9.2-3.1-18-8.5-26.3-16.2l-1.3-1.2 17-21.2 1.5 1.6c5.4 5.9 11.3 10.3 17.6 13.3 6.2 3 13.7 4.5 21.3 4.5 7.7 0 14.1-1.1 19.1-3.3 4.9-2.2 8.9-5 11.8-8.4 2.9-3.5 5-7.4 6.2-11.8 1.2-4.5 1.8-9.1 1.8-13.7v-11.7c-3.9 5.2-8.9 9.1-14.8 11.8-7.3 3.4-15.1 5.1-23.1 5.1-8.5 0-16.5-1.5-23.8-4.6-7.2-3-13.6-7.2-18.8-12.5-5.3-5.3-9.4-11.7-12.4-19-2.9-7.3-4.4-15.3-4.4-23.7 0-8.5 1.4-16.5 4.2-23.9 2.8-7.5 6.8-14.1 11.9-19.6 5.2-5.6 11.5-10 18.8-13.1 7.3-3.1 15.5-4.7 24.5-4.7 7.8 0 15.6 1.7 23.1 5.2 6 2.8 11 6.3 14.9 10.5zm-0.1 45.6c0-5.5-0.9-10.6-2.5-15.2-1.7-4.6-4-8.6-7-11.8-3-3.2-6.7-5.8-11.1-7.6-4.3-1.9-9.3-2.9-14.7-2.9-5.5 0-10.4 1-14.8 2.9-4.3 1.8-8.1 4.4-11 7.6-3 3.2-5.4 7.2-7 11.8-1.7 4.6-2.5 9.7-2.5 15.2 0 10.9 3.2 19.7 9.4 26.2 6.3 6.5 15 9.8 25.9 9.8 10.8 0 19.5-3.3 25.8-9.8 6.3-6.5 9.5-15.3 9.5-26.2z" fill="#000000"/>
  <path id="Layer" class="s1" d="m878.8 144c-4-3.7-8.6-6.4-13.8-8.2-5.2-1.7-10.7-2.6-16.2-2.6-9.1 0-17.2 2-24.1 5.9-4.9 2.7-8.8 6.1-11.7 10.1v-80.4h-25.3v184.1h17.1c4.5 0 8.2-3.7 8.2-8.2v-51.9c0-6.3 0.7-11.8 2.2-16.3 1.5-4.5 3.6-8.2 6.3-11.1 2.7-2.9 5.8-5 9.3-6.3 3.6-1.4 7.5-2.1 11.7-2.1 3.2 0 6.2 0.5 9.1 1.5 2.8 0.9 5.3 2.5 7.5 4.5 2.2 2.1 4 5 5.3 8.4 1.3 3.5 2 7.8 2 12.8v68.7h17.1c4.5 0 8.1-3.7 8.1-8.2v-66.4c0-7.7-1.1-14.5-3.4-20.2-2.4-5.7-5.5-10.5-9.4-14.1z" fill="#000000"/>
  <path id="Layer" class="s1" d="m970.4 231.3c-2.6 0.4-5.1 0.6-7.5 0.6-3.7 0-6.5-0.6-8.4-1.9-1.8-1.3-3.2-3-4.1-5.1q-1.4-3.4-1.6-7.7c-0.2-3.1-0.2-6.2-0.2-9.4v-49.3h22.5c4.6 0 8.2-3.7 8.2-8.2v-14.2h-30.7v-31.7h-25.3v31.7h-24.8v22.4h24.8v57c0 4.6 0.2 9.3 0.6 13.9 0.4 4.7 1.8 9.1 4.1 13 2.3 4 5.9 7.2 10.8 9.7 4.7 2.4 11.5 3.7 20 3.7 2.3 0 5.5-0.3 9.7-0.9q3.2-0.4 5.8-1.2c3.4-1 5.7-4.3 5.7-7.8v-18.7l-2.8 1.7c-2 1.1-4.3 1.9-6.8 2.3z" fill="#000000"/>
  <path id="Layer" class="s1" d="m1033 105.7h75c4.5 0 8.2-3.7 8.2-8.2v-17.1h-109.9v172.7h18.5c4.5 0 8.2-3.7 8.2-8.2v-64.8h69.3c4.5 0 8.2-3.7 8.2-8.2v-17.1h-77.5z" fill="#000000"/>
  <path id="Layer" fill-rule="evenodd" class="s1" d="m1214 240.1q0 1.4 0.1 2.8c0.2 2.2-0.6 4.5-2.2 6.1-1.5 1.7-3.7 2.6-5.9 2.6h-14l-0.2-1.7q-0.5-6.1-0.6-12.2c-4.3 5.4-9.3 9.5-14.8 12.1-6.8 3.1-14.6 4.7-23.5 4.7-5.4 0-10.6-0.8-15.5-2.3-5-1.5-9.4-3.7-13.2-6.7-3.8-3.1-6.8-6.9-9-11.3-2.1-4.4-3.3-9.7-3.3-15.5 0-7.7 1.8-14.2 5.2-19.4 3.5-5.2 8.2-9.4 14.1-12.7 5.8-3.1 12.6-5.5 20.3-6.8 7.7-1.4 15.9-2.1 24.6-2.1h13.8v-2.9q0-3.9-1.5-7.9c-1-2.6-2.6-5-4.6-7.1-2.1-2.1-4.7-3.8-7.7-5.1-3.1-1.2-6.9-1.8-11.2-1.8-4 0-7.5 0.3-10.4 1.1-3 0.8-5.7 1.7-8.1 2.8-2.5 1.2-4.7 2.5-6.6 4l-1.5 1.1c-3.3 2.6-8 2.2-10.9-0.8l-10.3-10.7 1.4-1.3c6.2-5.7 13.5-10.1 21.6-12.9 8.2-2.9 16.1-4.3 24.5-4.3 8.4 0 15.8 1.1 22 3.2 6.2 2.1 11.3 5.1 15.3 8.7 4 3.7 7 8 8.9 12.8 2 4.7 2.9 9.7 2.9 14.9v57.7c0 3.9 0.1 7.6 0.3 10.9zm-24.1-42.9zm0 0h-9.5c-5 0-10.2 0.3-15.5 0.8-5.1 0.6-9.8 1.6-14.1 3.1-4 1.5-7.4 3.6-10 6.3-2.4 2.5-3.6 5.6-3.6 9.6 0 5.9 1.8 10 5.7 12.5 4 2.6 9.6 4 16.7 4 5.6 0 10.4-1 14.2-2.8 3.9-1.9 7-4.3 9.4-7.2 2.4-3 4.1-6.4 5.1-10 1.1-3.7 1.6-7.4 1.6-11z" fill="#000000"/>
  <path id="Layer" class="s1" d="m1264.8 168.6c2.8-3.5 6.3-6.3 10.4-8.3 4.1-2 9-3 14.5-3 5.6 0 10.7 1 14.8 3 2.8 1.3 5.5 3.1 8.1 5.3 3.1 2.7 7.8 2.6 10.8-0.1l13.3-12.2-1.2-1.4c-5.8-6.2-12.6-10.9-20.4-13.9-7.8-3-16-4.6-24.4-4.6-9.2 0-17.5 1.6-25 4.6-7.4 3-13.9 7.3-19.2 12.7-5.3 5.4-9.5 12-12.5 19.5-2.9 7.5-4.4 15.8-4.4 24.8 0 8.9 1.5 17.2 4.4 24.6 3 7.5 7.2 14 12.6 19.3 5.4 5.3 11.9 9.5 19.4 12.4 7.4 3 15.7 4.5 24.6 4.5 8.5 0 16.6-1.4 24.2-4.2 7.6-2.8 14.4-7.5 20.2-13.9l1.2-1.3-12.1-12.1c-3-3-8-3.2-11.3-0.3-2.3 2-4.7 3.7-7.3 4.9-4 2-8.9 3-14.6 3-5.3 0-10.1-0.9-14.3-2.8-4.2-1.9-7.8-4.5-10.8-7.8-3-3.3-5.4-7.2-7-11.6-1.7-4.5-2.5-9.3-2.5-14.3 0-5 0.7-9.9 2.2-14.5 1.4-4.7 3.5-8.8 6.3-12.3z" fill="#000000"/>
  <path id="Layer" class="s1" d="m1413.5 231.3c-2.5 0.4-5.1 0.6-7.5 0.6-3.7 0-6.5-0.6-8.3-1.9-1.9-1.3-3.2-3-4.1-5.1q-1.5-3.4-1.7-7.7c-0.1-3.1-0.2-6.2-0.2-9.4v-49.3h22.6c4.5 0 8.1-3.7 8.1-8.2v-14.2h-30.7v-31.7h-25.3v31.7h-24.8v22.4h24.8v57c0 4.6 0.2 9.3 0.6 13.9 0.5 4.7 1.8 9.1 4.1 13 2.3 4 5.9 7.2 10.8 9.7 4.8 2.4 11.5 3.7 20 3.7 2.4 0 5.5-0.3 9.7-0.9q3.2-0.4 5.9-1.2c3.3-1 5.6-4.3 5.6-7.8v-18.7l-2.8 1.7c-2 1.1-4.3 1.9-6.8 2.3z" fill="#000000"/>
  <path id="Layer" class="s1" d="m1522.7 204.2c-1.7-3.9-4.2-7.2-7.4-10-3.1-2.6-6.8-4.8-11-6.5-4.1-1.6-8.6-3-13.3-4.1q-3.6-0.8-8.6-1.7c-3.2-0.6-6.2-1.5-9-2.7q-4.1-1.8-7.1-4.7c-1.8-1.7-2.7-3.9-2.7-6.7 0-3.5 1.6-6 4.7-7.8 3.4-2 7.6-3 12.3-3 5 0 9.3 1 12.8 3 2 1.1 3.8 2.5 5.5 3.9 2.9 2.7 7.3 2.9 10.4 0.6l13.6-10.3-0.9-1.5c-4.3-7-10.2-12.1-17.6-15.1-7.2-2.9-14.8-4.4-22.6-4.4-5.4 0-10.8 0.8-16.2 2.2-5.3 1.5-10.2 3.8-14.4 6.8-4.2 3-7.7 6.8-10.3 11.4-2.6 4.7-3.9 10.1-3.9 16.3 0 5.7 1 10.6 3 14.5 2.1 3.9 4.8 7.2 8.2 9.7 3.3 2.5 7.2 4.5 11.5 6q6.3 2.2 13.3 3.9c2.4 0.5 5.2 1.1 8.2 1.8 3 0.7 5.9 1.6 8.5 2.7 2.5 1.1 4.8 2.6 6.6 4.5 1.6 1.7 2.4 3.9 2.4 6.5 0 2-0.5 3.7-1.7 5.2-1.1 1.6-2.7 3-4.6 4-2 1.1-4.3 2-6.9 2.5q-3.9 0.8-7.8 0.8c-5.8 0-10.8-1.3-14.7-3.8-2.8-1.7-5.3-3.6-7.7-5.6-3-2.6-7.4-2.6-10.5-0.1l-13.3 11 1 1.5c5.8 7.9 12.4 13.4 19.8 16.4 7.3 2.9 15.8 4.4 25.4 4.4 5.7 0 11.4-0.7 17-2 5.7-1.3 10.8-3.5 15.3-6.4 4.5-3 8.2-7 11.1-11.7 2.8-4.8 4.3-10.7 4.3-17.3 0-5.5-0.9-10.3-2.7-14.2z" fill="#000000"/>
</svg>